PathFileType	4	(X/Y/Z)	21_coords_data.trc
DataRate	CameraRate	NumFrames	NumMarkers	Units	OrigDataRate	OrigDataStartFrame	OrigNumFrames
30.0	30.0	6	21	m	30.0	31	60
Frame#	Time	THUMB_TIP	THUMB_IP	THUMB_MCP	THUMB_CMC	INDEX_TIP	INDEX_DIP	INDEX_PIP	INDEX_MCP	MIDDLE_TIP	MIDDLE_DIP	MIDDLE_PIP	MIDDLE_MCP	RING_TIP	RING_DIP	RING_PIP	RING_MCP	PINKY_TIP	PINKY_DIP	PINKY_PIP	PINKY_MCP	WRIST
X1	Y1	Z1	X2	Y2	Z2	X3	Y3	Z3	X4	Y4	Z4	X5	Y5	Z5	X6	Y6	Z6	X7	Y7	Z7	X8	Y8	Z8	X9	Y9	Z9	X10	Y10	Z10	X11	Y11	Z11	X12	Y12	Z12	X13	Y13	Z13	X14	Y14	Z14	X15	Y15	Z15	X16	Y16	Z16	X17	Y17	Z17	X18	Y18	Z18	X19	Y19	Z19	X20	Y20	Z20	X21	Y21	Z21
30	1.0	-0.04008689880371094	-0.03352180099487305	0.9092789916992188	-0.04219079971313477	-0.011315500259399414	0.9293270263671874	-0.04665859985351563	0.009909270286560058	0.95335400390625	-0.053551898956298825	0.040203399658203125	0.9750650024414063	-0.0314015998840332	0.0431775016784668	0.9462329711914063	-0.01585599994659424	0.04442530059814453	0.9335689697265624	-0.01441349983215332	0.041013999938964846	0.9088499755859375	-0.05730739974975586	0.03760800170898437	0.9144639892578125	-0.030218500137329102	0.05651110076904297	0.9478920288085938	-0.019693599700927735	0.06075640106201172	0.9401079711914062	-0.014708900451660156	0.06251269912719727	0.9119409790039062	-0.060761699676513674	0.06139020156860352	0.9136060180664063	-0.03732170104980469	0.07016490173339844	0.9525120239257813	-0.02268510055541992	0.07543879699707032	0.9406160278320312	-0.0185669002532959	0.0808988037109375	0.9142529907226562	-0.06086970138549805	0.08215570068359375	0.9204569702148437	-0.03236859893798828	0.08573739624023438	0.9480469970703125	-0.01885460090637207	0.09045269775390626	0.938197998046875	-0.02386009979248047	0.09676609802246093	0.9222009887695313	-0.05618149948120117	0.09796070098876954	0.9303599853515625	-0.08257990264892578	0.0607947998046875	0.9989089965820312
31	1.0333333333333334	-0.036543800354003904	-0.03125130081176758	0.907989013671875	-0.04005319976806641	-0.009915909767150878	0.9287479858398437	-0.04627859878540039	0.010520999908447265	0.9532769775390625	-0.05381610107421875	0.040770401000976564	0.9751630249023437	-0.024993799209594728	0.04528620147705078	0.94475	-0.011199600219726562	0.04501190185546875	0.9281079711914062	-0.015309200286865235	0.04098649978637695	0.904041015625	-0.05738019943237305	0.03842060089111328	0.914510009765625	-0.028885499954223633	0.05645330047607422	0.94860498046875	-0.015102700233459472	0.061419700622558596	0.9363880004882813	-0.015290699958801269	0.06345370101928711	0.9077969970703125	-0.061082298278808594	0.06212260055541992	0.9135419921875	-0.03383269882202149	0.07010870361328125	0.95239697265625	-0.019428699493408204	0.07619249725341797	0.9379039916992188	-0.019525400161743166	0.08203279876708984	0.910905029296875	-0.06115230178833008	0.08294000244140624	0.9209910278320312	-0.028835699081420897	0.08593190002441406	0.947177001953125	-0.017403200149536134	0.09160469818115234	0.9356079711914063	-0.024965599060058595	0.09806439971923828	0.9203189697265625	-0.056476100921630856	0.09865059661865234	0.930676025390625	-0.0832417984008789	0.06077159881591797	0.9987659912109375
32	1.0666666666666667	-0.03381629943847656	-0.029865800857543947	0.9080759887695312	-0.03843130111694336	-0.008916899681091309	0.929010986328125	-0.04570669937133789	0.011110500335693359	0.9534190063476562	-0.054120800018310544	0.04119219970703125	0.9752899780273437	-0.011888699531555176	0.047553001403808595	0.9417420043945313	-0.0055401501655578615	0.045892898559570315	0.9225020141601562	-0.01570759963989258	0.041220699310302734	0.9001719970703125	-0.056783199310302734	0.03892620086669922	0.9145280151367188	-0.021918100357055666	0.05840359878540039	0.9491840209960938	-0.009526510238647461	0.06290869903564453	0.9315130004882812	-0.015962900161743163	0.06480470275878907	0.9037059936523437	-0.061201099395751954	0.06290610122680663	0.9136430053710938	-0.0262007999420166	0.07077580261230469	0.9528740234375	-0.014404600143432617	0.07781559753417969	0.9350020141601563	-0.02053529930114746	0.08373880004882812	0.9079650268554688	-0.06126129913330078	0.08362640380859375	0.9211179809570312	-0.02381920051574707	0.0867947998046875	0.945219970703125	-0.01565429973602295	0.09401260375976563	0.9318419799804688	-0.02642140007019043	0.10032499694824219	0.9183770141601563	-0.056982101440429686	0.09948529815673827	0.9307319946289062	-0.08355280303955079	0.060995899200439456	0.9988189697265625
33	1.1	-0.03299449920654297	-0.028669700622558594	0.9078380126953125	-0.03798329925537109	-0.008094929695129394	0.9289600219726563	-0.04581439971923828	0.011544500350952148	0.953593994140625	-0.055128700256347654	0.041329200744628904	0.9757620239257813	0.001247359991073608	0.04919070053100586	0.9365130004882812	-0.0007096189856529231	0.04615240097045899	0.9163070068359375	-0.015934300422668458	0.041492298126220704	0.8973350219726562	-0.05631819915771484	0.03963840103149414	0.91522900390625	-0.008339710235595703	0.05973490142822266	0.9444669799804688	-0.003715660095214843	0.06409030151367187	0.9246680297851563	-0.016732700347900392	0.06624320220947266	0.8995969848632812	-0.061089599609375	0.06369129943847657	0.914280029296875	-0.012095499992370605	0.07240280151367187	0.9490789794921874	-0.0078108301162719725	0.07910669708251954	0.9299869995117187	-0.0209778995513916	0.08523079681396484	0.9053209838867188	-0.06095909881591797	0.08415889739990234	0.921530029296875	-0.015427800178527832	0.08846920013427734	0.942176025390625	-0.013314499855041503	0.09669779968261719	0.9274869995117188	-0.027436700820922852	0.10229000091552734	0.9166060180664063	-0.05648089981079102	0.10014900207519531	0.9311630249023437	-0.08431379699707031	0.0614385986328125	0.9988820190429688
34	1.1333333333333333	-0.030672800064086913	-0.026973400115966797	0.907916015625	-0.036684398651123044	-0.0067298998832702635	0.9293690185546875	-0.04557040023803711	0.01207919979095459	0.9540020141601563	-0.05606029891967773	0.04136750030517578	0.976385986328125	0.012928000450134277	0.049986099243164064	0.9263109741210938	0.0025434401035308836	0.04610329818725586	0.9074949951171875	-0.017035499572753906	0.041761199951171876	0.8938289794921875	-0.05605410003662109	0.0401599006652832	0.9156110229492187	0.003825119972229004	0.06236399841308594	0.937572998046875	0.001051499962806701	0.06578990173339844	0.916156982421875	-0.01840480041503906	0.06769609832763672	0.8950830078125	-0.06097029876708984	0.06442669677734375	0.9149669799804687	0.002366090059280395	0.0756050033569336	0.9403259887695312	-0.002094609975814819	0.08178160095214844	0.92125	-0.02260479927062988	0.08707779693603515	0.9013330078125	-0.06062630081176758	0.08471610260009765	0.921801025390625	-0.00666415023803711	0.09158470153808594	0.9360599975585937	-0.012249500274658202	0.10038500213623047	0.9215269775390625	-0.029163999557495116	0.10452300262451172	0.9139819946289063	-0.05599069976806641	0.10085800170898437	0.931573974609375	-0.08436000061035157	0.061469100952148435	0.9990399780273438
35	1.1666666666666667	-0.02756839942932129	-0.025409700393676758	0.908593017578125	-0.03452019882202149	-0.005775899887084961	0.930030029296875	-0.04478379821777344	0.012885100364685058	0.9548049926757812	-0.056087200164794924	0.04201079940795899	0.9768070068359375	0.022	0.05031969833374023	0.9120339965820312	0.004381639957427978	0.04628810119628906	0.8985460205078125	-0.017993099212646486	0.042325599670410156	0.89085498046875	-0.054833599090576175	0.04102389907836914	0.9161929931640626	0.016690900802612305	0.06716020202636719	0.9230239868164063	0.004242579936981201	0.06908989715576172	0.9042069702148438	-0.02091320037841797	0.06945469665527344	0.889697021484375	-0.06027510070800781	0.06524410247802734	0.9154409790039062	0.014589599609375	0.08156479644775391	0.9245980224609375	0.0007266849875450131	0.08637879943847657	0.909625	-0.024817699432373046	0.08935389709472656	0.8971119995117187	-0.060217201232910154	0.08521610260009765	0.922072998046875	0.0008060209751129151	0.09838520050048828	0.9254409790039062	-0.012539299964904785	0.1051790008544922	0.914823974609375	-0.03157360076904297	0.10703299713134766	0.9119439697265626	-0.05615639877319336	0.10156300354003907	0.9323900146484375	-0.08501309967041015	0.06198559951782227	0.99931201171875
